<svg xmlns="http://www.w3.org/2000/svg" width="100%" height="180" viewBox="0 0 1000 180">
  <!-- Background -->
  <rect width="100%" height="180" fill="white"/>

  <!-- User Box -->
  <rect x="20" y="40" width="150" height="80" rx="4" ry="4" fill="white" stroke="#333" stroke-width="2"/>
  <text x="95" y="75" font-family="Arial" font-size="18" text-anchor="middle" fill="#333">User</text>

  <!-- Python CLI Box -->
  <rect x="290" y="40" width="150" height="80" rx="4" ry="4" fill="white" stroke="#333" stroke-width="2"/>
  <text x="365" y="75" font-family="Arial" font-size="18" text-anchor="middle" fill="#333">Python CLI</text>

  <!-- Dgraph Client Box -->
  <rect x="560" y="40" width="150" height="80" rx="4" ry="4" fill="white" stroke="#333" stroke-width="2"/>
  <text x="635" y="75" font-family="Arial" font-size="18" text-anchor="middle" fill="#333">Dgraph Client</text>
  <text x="635" y="95" font-family="Arial" font-size="16" text-anchor="middle" fill="#666">(gRPC)</text>

  <!-- Dgraph Database Box -->
  <rect x="830" y="40" width="150" height="80" rx="4" ry="4" fill="white" stroke="#333" stroke-width="2"/>
  <text x="905" y="75" font-family="Arial" font-size="18" text-anchor="middle" fill="#333">Dgraph Database</text>

  <!-- Forward Arrows with gap -->
  <line x1="180" y1="80" x2="280" y2="80" stroke="#333" stroke-width="2.5"/>
  <polygon points="280,80 270,75 270,85" fill="#333"/>

  <line x1="450" y1="80" x2="550" y2="80" stroke="#333" stroke-width="2.5"/>
  <polygon points="550,80 540,75 540,85" fill="#333"/>

  <line x1="720" y1="80" x2="820" y2="80" stroke="#333" stroke-width="2.5"/>
  <polygon points="820,80 810,75 810,85" fill="#333"/>

  <!-- Backward Arrows with gap -->
  <line x1="280" y1="100" x2="180" y2="100" stroke="#333" stroke-width="2.5"/>
  <polygon points="180,100 190,105 190,95" fill="#333"/>

  <line x1="550" y1="100" x2="450" y2="100" stroke="#333" stroke-width="2.5"/>
  <polygon points="450,100 460,105 460,95" fill="#333"/>

  <line x1="820" y1="100" x2="720" y2="100" stroke="#333" stroke-width="2.5"/>
  <polygon points="720,100 730,105 730,95" fill="#333"/>
</svg>