<svg xmlns="http://www.w3.org/2000/svg" viewBox="0 40 600 400">
  <!-- Background -->
  <rect width="100%" height="120%" fill="white"/>

  <!-- Central Node: Zero -->
  <rect x="230" y="160" width="140" height="80" rx="8" ry="8" fill="#e6f2ff" stroke="#0066cc" stroke-width="2"/>
  <text x="300" y="185" font-family="Arial" font-size="16" text-anchor="middle" font-weight="bold" fill="#0066cc">Zero (0)</text>
  <line x1="250" y1="195" x2="350" y2="195" stroke="#0066cc" stroke-width="1"/>
  <text x="270" y="215" font-family="Arial" font-size="12" fill="#333">id: "/c/en/0"</text>

  <!-- Node: Empty Set -->
  <rect x="80" y="70" width="140" height="80" rx="8" ry="8" fill="#e6f2ff" stroke="#0066cc" stroke-width="2"/>
  <text x="150" y="95" font-family="Arial" font-size="16" text-anchor="middle" font-weight="bold" fill="#0066cc">Empty Set</text>
  <line x1="100" y1="105" x2="200" y2="105" stroke="#0066cc" stroke-width="1"/>
  <text x="95" y="125" font-family="Arial" font-size="12" fill="#333">id: "/c/en/empty_set"</text>

  <!-- Node: First Limit Ordinal -->
  <rect x="380" y="70" width="140" height="80" rx="8" ry="8" fill="#e6f2ff" stroke="#0066cc" stroke-width="2"/>
  <text x="450" y="95" font-family="Arial" font-size="14" text-anchor="middle" font-weight="bold" fill="#0066cc">First Limit Ordinal</text>
  <line x1="400" y1="105" x2="500" y2="105" stroke="#0066cc" stroke-width="1"/>
  <text x="390" y="125" font-family="Arial" font-size="10" fill="#333">id: "/c/en/first_limit_ordinal"</text>

  <!-- Node: Number Zero -->
  <rect x="230" y="290" width="140" height="80" rx="8" ry="8" fill="#e6f2ff" stroke="#0066cc" stroke-width="2"/>
  <text x="300" y="315" font-family="Arial" font-size="16" text-anchor="middle" font-weight="bold" fill="#0066cc">Number Zero</text>
  <line x1="250" y1="325" x2="350" y2="325" stroke="#0066cc" stroke-width="1"/>
  <text x="240" y="345" font-family="Arial" font-size="12" fill="#333">id: "/c/en/number_zero"</text>

  <!-- Connection: Empty Set to Zero -->
  <line x1="150" y1="150" x2="230" y2="200" stroke-width="2"  stroke="#333"/>
  <polygon points="300,290 305,280 295,280" fill="#333"/>

  <!-- Connection: First Limit Ordinal to Zero -->
  <line x1="450" y1="150" x2="370" y2="200" stroke-width="2"  stroke="#333"/>
  <polygon points="300,290 305,280 295,280" fill="#333"/>

  <!-- Connection: Future connection to Number Zero -->
  <line x1="300" y1="240" x2="300" y2="290" stroke="#333" stroke-width="2" stroke-dasharray="5,3"/>
  <polygon points="300,290 305,280 295,280" fill="#333"/>

  <!-- Facet Labels -->
  <rect x="160" y="130" width="80" height="40" rx="4" ry="4" fill="#ffe6cc" stroke="#ff9933" stroke-width="1.5"/>
  <text x="200" y="150" font-family="Arial" font-size="10" text-anchor="middle" fill="#333">id: "/r/DefinedAs"</text>
  <text x="200" y="165" font-family="Arial" font-size="10" text-anchor="middle" fill="#333">label: "defined as"</text>

  <rect x="360" y="130" width="80" height="40" rx="4" ry="4" fill="#ffe6cc" stroke="#ff9933" stroke-width="1.5"/>
  <text x="400" y="150" font-family="Arial" font-size="10" text-anchor="middle" fill="#333">id: "/r/DefinedAs"</text>
  <text x="400" y="165" font-family="Arial" font-size="10" text-anchor="middle" fill="#333">label: "defined as"</text>

  <rect x="310" y="250" width="100" height="30" rx="4" ry="4" fill="#f6f6f6" stroke="#999" stroke-width="1" stroke-dasharray="5,3"/>
  <text x="360" y="270" font-family="Arial" font-size="10" text-anchor="middle" fill="#666">Potential facet</text>

  <!-- Legend -->
  <rect x="50" y="385" width="500" height="30" rx="4" ry="4" fill="#f6f6f6" stroke="#999" stroke-width="1"/>
  <text x="80" y="405" font-family="Arial" font-size="12" fill="#333">Node</text>
  <line x1="125" y1="400" x2="143" y2="400" stroke="#333" stroke-width="2"/>
  <text x="150" y="405" font-family="Arial" font-size="12" fill="#333">Direct Connection</text>
  <line x1="270" y1="400" x2="290" y2="400" stroke="#333" stroke-width="2" stroke-dasharray="5,3"/>
  <text x="300" y="405" font-family="Arial" font-size="12" fill="#333">Potential Connection</text>
  <rect x="420" y="392" width="15" height="15" rx="2" ry="2" fill="#ffe6cc" stroke="#ff9933" stroke-width="1.5"/>
  <text x="445" y="405" font-family="Arial" font-size="12" fill="#333">Facets (Edges)</text>
</svg>