<svg xmlns="http://www.w3.org/2000/svg" viewBox="0 0 600 300">
  <!-- Background -->
  <rect width="600" height="300" fill="white"/>

  <!-- Node 1 -->
  <rect x="100" y="100" width="150" height="120" rx="8" ry="8" fill="#e6f2ff" stroke="#0066cc" stroke-width="2"/>
  <text x="175" y="130" font-family="Arial" font-size="16" text-anchor="middle" font-weight="bold" fill="#0066cc">Node A</text>
  <line x1="125" y1="140" x2="225" y2="140" stroke="#0066cc" stroke-width="1"/>
  <text x="135" y="160" font-family="Arial" font-size="14" fill="#333">id: "/c/en/0"</text>
  <text x="135" y="185" font-family="Arial" font-size="14" fill="#333">label: "0"</text>

  <!-- Node 2 -->
  <rect x="350" y="100" width="150" height="120" rx="8" ry="8" fill="#e6f2ff" stroke="#0066cc" stroke-width="2"/>
  <text x="425" y="130" font-family="Arial" font-size="16" text-anchor="middle" font-weight="bold" fill="#0066cc">Node B</text>
  <line x1="375" y1="140" x2="475" y2="140" stroke="#0066cc" stroke-width="1"/>
  <text x="385" y="160" font-family="Arial" font-size="14" fill="#333">id: "/c/en/zero"</text>
  <text x="385" y="185" font-family="Arial" font-size="14" fill="#333">label: "zero"</text>

  <!-- Connection with Facets -->
  <line x1="250" y1="150" x2="350" y2="150" stroke="#333" stroke-width="2"/>
  <polygon points="350,150 340,145 340,155" fill="#333"/>
  <rect x="270" y="100" width="60" height="40" rx="4" ry="4" fill="#ffe6cc" stroke="#ff9933" stroke-width="1.5"/>
  <text x="300" y="117" font-family="Arial" font-size="11" text-anchor="middle" fill="#333">Facets:</text>
  <text x="300" y="133" font-family="Arial" font-size="11" text-anchor="middle" fill="#333">id, label</text>

  <!-- Connection Back (Reverse) -->
  <line x1="350" y1="180" x2="250" y2="180" stroke="#333" stroke-width="2" stroke-dasharray="5,3"/>
  <polygon points="250,180 260,185 260,175" fill="#333"/>
  <text x="300" y="200" font-family="Arial" font-size="12" text-anchor="middle" font-style="italic" fill="#666">@reverse</text>

  <!-- Legend -->
  <rect x="100" y="250" width="400" height="30" rx="4" ry="4" fill="#f6f6f6" stroke="#999" stroke-width="1"/>
  <text x="120" y="270" font-family="Arial" font-size="12" fill="#333">Node Property</text>
  <line x1="200" y1="270" x2="220" y2="270" stroke="#333" stroke-width="2"/>
  <text x="230" y="270" font-family="Arial" font-size="12" fill="#333">Direct Edge</text>
  <line x1="310" y1="270" x2="330" y2="270" stroke="#333" stroke-width="2" stroke-dasharray="5,3"/>
  <text x="340" y="270" font-family="Arial" font-size="12" fill="#333">Reverse Edge</text>
  <rect x="430" y="260" width="15" height="15" rx="2" ry="2" fill="#ffe6cc" stroke="#ff9933" stroke-width="1.5"/>
  <text x="455" y="270" font-family="Arial" font-size="12" fill="#333">Facets</text>
</svg>